<svg width="120" height="120" viewBox="0 0 120 120" fill="none" xmlns="http://www.w3.org/2000/svg">
  <defs>
    <linearGradient id="capatazOrange" x1="10" y1="10" x2="110" y2="110" gradientUnits="userSpaceOnUse">
      <stop stop-color="#FF5A1F"/>
      <stop offset="1" stop-color="#FFB347"/>
    </linearGradient>
  </defs>
  <path d="M23 34C23 23.5 31.5 15 42 15H72C79.5 15 86 19.2 89 25.5L92.5 33.5C94.1 37 92.7 41.1 89.3 42.8C86 44.5 82 43.3 80.2 40L77.8 35.5C76.7 33.5 74.6 32.2 72.3 32.2H42C36.5 32.2 32 36.7 32 42.2C32 47.7 27.5 52.2 22 52.2C16.5 52.2 12 47.7 12 42.2C12 37.7 15.4 34 19.7 33.4C20.8 33.1 21.9 33 23 33V34Z" fill="url(#capatazOrange)"/>
  <path d="M13 58C13 47.5 21.5 39 32 39H88C99 39 108 48 108 59C108 70 99 79 88 79H32C21.5 79 13 70.5 13 60V58Z" fill="url(#capatazOrange)"/>
  <path d="M36 92C36 82.1 44.1 74 54 74H84C89.6 74 94.9 76.6 98.3 81L101.7 85.2C104 88.1 103.4 92.4 100.4 94.7C97.4 97 93.1 96.4 90.8 93.4L88.7 90.8C87.4 89.1 85.4 88 83.3 88H54C48.5 88 44 92.5 44 98C44 103.5 39.5 108 34 108C28.5 108 24 103.5 24 98C24 94.1 26.2 90.7 29.4 89C31 88.1 32.8 87.6 34.7 87.6C35.1 87.6 35.6 87.7 36 87.7V92Z" fill="url(#capatazOrange)"/>
  <ellipse cx="17" cy="32" rx="5" ry="5" fill="#FF7A1F"/>
  <ellipse cx="97" cy="83" rx="4.5" ry="4.5" fill="#FF7A1F"/>
  <ellipse cx="58" cy="108" rx="10" ry="4" fill="#FF7A1F"/>
</svg>
